# xmcd
#
# Track frame offsets:
#	150
#	20980
#	40099
#	60102
#	79006
#	101647
#	129579
#	148593
#	164267
#	189157
#	204222
#	228693
#	246971
#
# Disc length: 3635 seconds
#
# Revision: 1
# Processed by: cddbd v1.5.2PL0 Copyright (c) Steve Scherf et al.
# Submitted via: audiograbber 1.83.01
#
DISCID=a80e310d
DTITLE=Bernard Allison - Chills and Thrills
DYEAR=2007
DGENRE=Blues
TTITLE0=Chills and Thrills
TTITLE1=Boogie Man
TTITLE2=So Devine
TTITLE3=When I'm gone
TTITLE4=Missing Tyrone
TTITLE5=Just my guitar and me
TTITLE6=Compromising for your needs
TTITLE7=Black and white
TTITLE8=Serious
TTITLE9=Heart of St. Paul
TTITLE10=That's why I'm cryin'
TTITLE11=Groove with me
TTITLE12=Serious (After hours)
EXTD=
EXTT0=
EXTT1=
EXTT2=
EXTT3=
EXTT4=
EXTT5=
EXTT6=
EXTT7=
EXTT8=
EXTT9=
EXTT10=
EXTT11=
EXTT12=
PLAYORDER=
